Patient4_TMGait_0pt5_02_left_10_GRF.mot
version=1
nRows=65
nColumns=19
inDegrees=no
endheader
time	F1x	F1y	F1z	M1x	M1y	M1z	F2x	F2y	F2z	M2x	M2y	M2z	EC1x	EC1y	EC1z	EC2x	EC2y	EC2z
12.37	-20.4718	6.8399	-7.1589	-1.0411	0.9633	0.086966	-36.2762	759.6948	-50.0024	304.676	61.7766	680.6091	-0.0592	0.0182	-0.0073	-0.0462	0.0165	0.9585
12.3835	-13.8592	4.9924	-4.7037	-0.85818	0.48873	0.39432	-36.6419	754.6371	-49.8677	301.7619	60.4114	673.3516	-0.0592	0.0182	-0.0073	-0.0462	0.0165	0.9585
12.397	-8.2896	3.4429	-2.6453	-0.7079	0.094126	0.70444	-36.1602	749.6615	-49.443	298.8946	58.5717	665.4988	-0.0592	0.0182	-0.0073	-0.0462	0.0165	0.9585
12.4105	-4.0761	2.2905	-1.0854	-0.60418	-0.21334	0.99342	-34.8466	745.8608	-48.7481	296.57	56.3602	658.0709	-0.0592	0.0182	-0.0073	-0.0462	0.0165	0.9585
12.424	-1.1797	1.5239	-0.0087503	-0.54632	-0.43859	1.2304	-32.8539	744.2097	-47.8683	295.2108	53.9296	651.9938	-0.0592	0.0182	-0.0073	-0.0462	0.0165	0.9585
12.4375	0.58653	1.0924	0.66106	-0.52624	-0.60016	1.4224	-30.3887	745.2499	-46.9024	295.0475	51.4302	647.8101	-0.0592	0.0182	-0.0073	-0.0462	0.0165	0.9585
12.451	1.4884	0.903	1.0222	-0.5278	-0.7124	1.5489	-27.658	748.9692	-45.9519	296.0739	48.9951	645.5733	-0.0592	0.0182	-0.0073	-0.0462	0.0165	0.9585
12.4645	1.7815	0.85492	1.1735	-0.53226	-0.79352	1.5998	-24.7977	754.8142	-45.0837	298.0624	46.6963	644.8594	-0.0592	0.0182	-0.0073	-0.0462	0.0165	0.9585
12.478	1.6832	0.84279	1.1952	-0.5164	-0.85649	1.5572	-21.8682	761.8248	-44.3465	300.6208	44.5603	644.8863	-0.0592	0.0182	-0.0073	-0.0462	0.0165	0.9585
12.4915	1.3727	0.74829	1.1549	-0.45151	-0.91237	1.3653	-18.8508	768.8233	-43.7443	303.2754	42.5472	644.6698	-0.0592	0.0182	-0.0073	-0.0462	0.0165	0.9585
12.505	0.95812	0.46709	1.0955	-0.30958	-0.97285	0.98227	-15.6592	774.6413	-43.2635	305.561	40.5856	643.2336	-0.0592	0.0182	-0.0073	-0.0462	0.0165	0.9585
12.5185	0.53796	-0.10255	1.0465	-0.063745	-1.0404	0.33886	-12.1672	778.3194	-42.844	307.0996	38.556	639.7804	-0.0592	0.0182	-0.0073	-0.0462	0.0165	0.9585
12.532	0.1799	-1.0217	1.0199	0.30474	-1.1058	-0.60539	-8.2546	779.2666	-42.4253	307.6614	36.3483	633.8396	-0.0592	0.0182	-0.0073	-0.0462	0.0165	0.9585
12.5455	-0.05556	-2.3048	1.0014	0.80246	-1.1352	-1.8716	-3.855	777.3809	-41.9376	307.2043	33.8735	625.3796	-0.0592	0.0182	-0.0073	-0.0462	0.0165	0.9585
12.559	-0.090421	-3.8971	0.96732	1.4106	-1.0812	-3.4275	1.0126	773.0544	-41.3588	305.8667	31.1228	614.8181	-0.0592	0.0182	-0.0073	-0.0462	0.0165	0.9585
12.5725	0.15525	-5.6274	0.86777	2.065	-0.86989	-5.1153	6.2247	767.0003	-40.7225	303.8982	28.1685	602.8726	-0.0592	0.0182	-0.0073	-0.0462	0.0165	0.9585
12.586	0.80514	-7.1545	0.6491	2.6337	-0.40652	-6.6184	11.5462	760.064	-40.143	301.5854	25.1912	590.4009	-0.0592	0.0182	-0.0073	-0.0462	0.0165	0.9585
12.5995	1.9666	-7.8795	0.24298	2.8905	0.41723	-7.3569	16.6924	753.0659	-39.7676	299.2003	22.4143	578.2405	-0.0592	0.0182	-0.0073	-0.0462	0.0165	0.9585
12.613	3.7368	-6.9076	-0.41464	2.5005	1.7004	-6.474	21.3712	746.6794	-39.7506	296.9579	20.0726	567.0884	-0.0592	0.0182	-0.0073	-0.0462	0.0165	0.9585
12.6265	6.1534	-3.0204	-1.3821	1.0111	3.5145	-2.8054	25.329	741.2884	-40.1854	294.9688	18.3378	557.3784	-0.0592	0.0182	-0.0073	-0.0462	0.0165	0.9585
12.64	9.1201	5.2824	-2.6821	-2.13	5.8457	5.0925	28.3952	736.8094	-41.0916	293.1729	17.301	549.1404	-0.0592	0.0182	-0.0073	-0.0462	0.0165	0.9585
12.6535	12.3454	19.6176	-4.2718	-7.5159	8.5394	18.7668	30.4859	732.5882	-42.3966	291.2994	16.9537	541.9288	-0.0592	0.0182	-0.0073	-0.0462	0.0165	0.9585
12.667	15.1898	41.4214	-5.9848	-15.6667	11.1914	39.6223	31.6233	727.4379	-43.9475	288.8853	17.1917	534.8553	-0.0592	0.0182	-0.0073	-0.0462	0.0165	0.9585
12.6805	16.6089	71.4089	-7.4833	-26.8307	13.081	68.3817	31.8989	719.8218	-45.5101	285.3478	17.8269	526.7422	-0.0592	0.0182	-0.0073	-0.0462	0.0165	0.9585
12.694	15.335	109.1339	-8.2612	-40.8179	13.2509	104.6776	31.4349	708.1297	-46.8047	280.0907	18.6278	516.3375	-0.0592	0.0182	-0.0073	-0.0462	0.0165	0.9585
12.7075	10.9258	153.0433	-7.7516	-57.0144	10.9863	147.0635	30.3868	690.9863	-47.532	272.624	19.3358	502.53	-0.0592	0.0182	-0.0073	-0.0462	0.0165	0.9585
12.721	4.3736	200.3457	-5.3641	-74.3371	6.0784	192.7947	28.9125	667.5115	-47.4401	262.6611	19.7233	484.5687	-0.0592	0.0182	-0.0073	-0.0462	0.0165	0.9585
12.7345	-2.813	246.567	-0.73558	-91.1194	-1.244	237.3387	27.1851	637.3944	-46.3805	250.1432	19.6335	462.1095	-0.0592	0.0182	-0.0073	-0.0462	0.0165	0.9585
12.748	-9.1241	287.2907	5.6033	-105.784	-9.8552	276.1617	25.3613	601.0294	-44.339	235.2802	19.0048	435.3303	-0.0592	0.0182	-0.0073	-0.0462	0.0165	0.9585
12.7615	-13.8116	320.6824	12.6207	-117.7283	-18.4188	307.3518	23.5675	559.5613	-41.4481	218.5587	17.8754	404.965	-0.0592	0.0182	-0.0073	-0.0462	0.0165	0.9585
12.775	-16.785	347.7416	19.3375	-127.3945	-25.9376	331.8084	21.9002	514.6565	-37.9828	200.6461	16.3853	372.1605	-0.0592	0.0182	-0.0073	-0.0462	0.0165	0.9585
12.7885	-18.2954	370.8944	25.0666	-135.7341	-31.8416	351.8643	20.4021	468.1304	-34.2224	182.2516	14.6851	338.2209	-0.0592	0.0182	-0.0073	-0.0462	0.0165	0.9585
12.802	-18.6169	392.7238	29.3787	-143.7306	-35.8425	369.9774	19.0752	421.6015	-30.3758	163.9953	12.8917	304.3171	-0.0592	0.0182	-0.0073	-0.0462	0.0165	0.9585
12.8155	-18.0078	415.2532	32.2649	-152.1255	-38.0555	388.0958	17.8505	376.2878	-26.5843	146.3283	11.0977	271.3482	-0.0592	0.0182	-0.0073	-0.0462	0.0165	0.9585
12.829	-16.7071	439.7543	33.9502	-161.359	-38.8112	407.4656	16.6302	332.915	-22.9779	129.4988	9.4047	239.8535	-0.0592	0.0182	-0.0073	-0.0462	0.0165	0.9585
12.8425	-14.9488	466.7961	34.9506	-171.591	-38.7021	428.6832	15.2877	291.7822	-19.6839	113.5839	7.9271	210.0612	-0.0592	0.0182	-0.0073	-0.0462	0.0165	0.9585
12.856	-13.01	496.3796	35.8215	-182.765	-38.3535	451.8223	13.6832	252.9283	-16.8117	98.5612	6.7789	182.0084	-0.0592	0.0182	-0.0073	-0.0462	0.0165	0.9585
12.8695	-11.2032	528.1853	37.0791	-194.7166	-38.3591	476.6542	11.7194	216.337	-14.4191	84.3969	6.0334	155.6644	-0.0592	0.0182	-0.0073	-0.0462	0.0165	0.9585
12.883	-9.8183	561.9041	38.9758	-207.301	-39.0576	502.9442	9.3583	182.1193	-12.503	71.1163	5.7047	131.0965	-0.0592	0.0182	-0.0073	-0.0462	0.0165	0.9585
12.8965	-9.0171	597.2557	41.5282	-220.4071	-40.5284	530.4597	6.6859	150.5084	-10.9981	58.8078	5.7224	108.4435	-0.0592	0.0182	-0.0073	-0.0462	0.0165	0.9585
12.91	-8.7986	633.7483	44.5113	-233.8692	-42.5727	558.7751	3.8809	121.7952	-9.786	47.5919	5.9399	87.8862	-0.0592	0.0182	-0.0073	-0.0462	0.0165	0.9585
12.9235	-9.0216	670.4728	47.6222	-247.3753	-44.8746	587.0978	1.174	96.222	-8.7286	37.5771	6.1828	69.5762	-0.0592	0.0182	-0.0073	-0.0462	0.0165	0.9585
12.937	-9.4775	706.0705	50.6001	-260.444	-47.134	614.2283	-1.2169	73.9131	-7.6934	28.8278	6.2942	53.5898	-0.0592	0.0182	-0.0073	-0.0462	0.0165	0.9585
12.9505	-9.947	738.9308	53.3092	-272.4923	-49.1579	638.7626	-3.1214	54.8643	-6.5952	21.3552	6.167	39.9276	-0.0592	0.0182	-0.0073	-0.0462	0.0165	0.9585
12.964	-10.2276	767.5103	55.6873	-282.9529	-50.8237	659.3808	-4.3989	38.9706	-5.3999	15.127	5.7353	28.5164	-0.0592	0.0182	-0.0073	-0.0462	0.0165	0.9585
12.9775	-10.1542	790.5491	57.7151	-291.3604	-52.0589	675.0449	-4.964	26.0809	-4.1443	10.0866	4.9992	19.2609	-0.0592	0.0182	-0.0073	-0.0462	0.0165	0.9585
12.991	-9.6079	807.1958	59.3617	-297.4038	-52.798	685.0845	-4.8072	16.0204	-2.9044	6.1672	4.0111	12.0345	-0.0592	0.0182	-0.0073	-0.0462	0.0165	0.9585
13.0045	-8.5222	817.0977	60.5788	-300.9584	-52.979	689.2651	-4.0863	8.6325	-1.79	3.303	2.9107	6.7201	-0.0592	0.0182	-0.0073	-0.0462	0.0165	0.9585
13.018	-6.8559	820.4307	61.3076	-302.0952	-52.5398	687.8096	-3.1389	3.6946	-0.894	1.3986	1.8898	3.1626	-0.0592	0.0182	-0.0073	-0.0462	0.0165	0.9585
13.0315	-4.6139	817.8436	61.5298	-301.0603	-51.4684	681.3376	-2.1937	0.76446	-0.25556	0.2784	1.0652	1.0484	-0.0592	0.0182	-0.0073	-0.0462	0.0165	0.9585
13.045	-1.8554	810.4197	61.2805	-298.2531	-49.8192	670.8224	-1.3878	-0.66999	0.15636	-0.25923	0.45881	0.015878	-0.0592	0.0182	-0.0073	-0.0462	0.0165	0.9585
13.0585	1.2928	799.5508	60.6412	-294.1847	-47.7114	657.4813	-0.75942	-1.0999	0.37474	-0.40629	0.062328	-0.30251	-0.0592	0.0182	-0.0073	-0.0462	0.0165	0.9585
13.072	4.6398	786.7803	59.7207	-289.4194	-45.3102	642.6595	-0.31744	-0.91455	0.46061	-0.3176	-0.16936	-0.18285	-0.0592	0.0182	-0.0073	-0.0462	0.0165	0.9585
13.0855	7.986	773.6591	58.6249	-284.5266	-42.7802	627.673	-0.035232	-0.41192	0.45451	-0.11021	-0.27182	0.16088	-0.0592	0.0182	-0.0073	-0.0462	0.0165	0.9585
13.099	11.1553	761.6314	57.4428	-280.0372	-40.2593	613.723	0.12313	0.20795	0.40232	0.13763	-0.29058	0.58742	-0.0592	0.0182	-0.0073	-0.0462	0.0165	0.9585
13.1125	14.0333	751.8669	56.246	-276.3824	-37.8436	601.7493	0.1815	0.83206	0.32888	0.38139	-0.25453	1.0249	-0.0592	0.0182	-0.0073	-0.0462	0.0165	0.9585
13.126	16.5703	745.1334	55.112	-273.8429	-35.6098	592.3308	0.1784	1.3841	0.25367	0.59505	-0.19225	1.4112	-0.0592	0.0182	-0.0073	-0.0462	0.0165	0.9585
13.1395	18.7675	741.7611	54.112	-272.5327	-33.6124	585.6906	0.12188	1.8347	0.18518	0.76919	-0.11543	1.7389	-0.0592	0.0182	-0.0073	-0.0462	0.0165	0.9585
13.153	20.6786	741.6561	53.3208	-272.4083	-31.8896	581.713	0.03685	2.1568	0.1284	0.89671	-0.036978	1.9893	-0.0592	0.0182	-0.0073	-0.0462	0.0165	0.9585
13.1665	22.3816	744.4109	52.794	-273.3076	-30.4509	580.0508	-0.067376	2.3356	0.086727	0.97041	0.036241	2.1502	-0.0592	0.0182	-0.0073	-0.0462	0.0165	0.9585
13.18	23.9683	749.3627	52.5828	-274.9723	-29.2964	580.1715	-0.19012	2.3385	0.064317	0.97483	0.09892	2.1778	-0.0592	0.0182	-0.0073	-0.0462	0.0165	0.9585
13.1935	25.5118	755.6938	52.7086	-277.0845	-28.4118	581.4515	-0.32492	2.1091	0.062459	0.88599	0.14428	2.0035	-0.0592	0.0182	-0.0073	-0.0462	0.0165	0.9585
13.207	27.0372	762.5106	53.1603	-279.3008	-27.7772	583.2352	-0.47459	1.5818	0.081133	0.6749	0.16932	1.5629	-0.0592	0.0182	-0.0073	-0.0462	0.0165	0.9585
13.2205	28.5337	768.9065	53.9025	-281.2781	-27.3661	584.8727	-0.61488	0.66684	0.11803	0.30686	0.16767	0.75693	-0.0592	0.0182	-0.0073	-0.0462	0.0165	0.9585
13.234	29.9561	774.0448	54.8696	-282.7051	-27.1429	585.7796	-0.72296	-0.71102	0.17321	-0.24961	0.12898	-0.49181	-0.0592	0.0182	-0.0073	-0.0462	0.0165	0.9585
